<svg width="24" height="24" viewBox="0 0 24 24" fill="none" xmlns="http://www.w3.org/2000/svg">
<mask id="path-1-inside-1_301_46" fill="white">
<path fill-rule="evenodd" clip-rule="evenodd" d="M21.8587 10.1311C22.4178 9.73231 22.4178 8.90166 21.8587 8.50288L13.0807 2.24137C12.4188 1.7692 11.5 2.24239 11.5 3.05547V6.01179C6.20944 6.27231 2 10.6443 2 15.9995V21.9995L3.69742 17.9151C5.02724 14.7152 8.06926 12.5786 11.5 12.3884V15.5785C11.5 16.3916 12.4188 16.8648 13.0807 16.3926L21.8587 10.1311Z"/>
</mask>
<path d="M21.8587 8.50288L20.9876 9.72404L20.9876 9.72404L21.8587 8.50288ZM21.8587 10.1311L20.9876 8.90993L20.9876 8.90993L21.8587 10.1311ZM13.0807 2.24137L13.9518 1.02021L13.9518 1.02021L13.0807 2.24137ZM11.5 6.01179L11.5738 7.50998L13 7.43975V6.01179H11.5ZM2 21.9995H0.5L3.38515 22.5752L2 21.9995ZM3.69742 17.9151L2.31227 17.3395L2.31227 17.3395L3.69742 17.9151ZM11.5 12.3884H13V10.8029L11.417 10.8907L11.5 12.3884ZM13.0807 16.3926L12.2096 15.1714L12.2096 15.1714L13.0807 16.3926ZM20.9876 9.72404C20.7081 9.52465 20.7081 9.10932 20.9876 8.90993L22.7298 11.3522C24.1274 10.3553 24.1274 8.27867 22.7298 7.28172L20.9876 9.72404ZM12.2096 3.46253L20.9876 9.72404L22.7298 7.28172L13.9518 1.02021L12.2096 3.46253ZM13 3.05547C13 3.46201 12.5406 3.69861 12.2096 3.46253L13.9518 1.02021C12.297 -0.160213 10 1.02277 10 3.05547H13ZM13 6.01179V3.05547H10V6.01179H13ZM3.5 15.9995C3.5 11.448 7.07803 7.73136 11.5738 7.50998L11.4262 4.51361C5.34086 4.81326 0.5 9.84061 0.5 15.9995H3.5ZM3.5 21.9995V15.9995H0.5V21.9995H3.5ZM2.31227 17.3395L0.614853 21.4239L3.38515 22.5752L5.08256 18.4907L2.31227 17.3395ZM11.417 10.8907C7.41347 11.1126 3.86401 13.6056 2.31227 17.3395L5.08256 18.4907C6.19048 15.8248 8.72505 14.0445 11.583 13.8861L11.417 10.8907ZM13 15.5785V12.3884H10V15.5785H13ZM12.2096 15.1714C12.5406 14.9354 13 15.172 13 15.5785H10C10 17.6112 12.297 18.7942 13.9518 17.6138L12.2096 15.1714ZM20.9876 8.90993L12.2096 15.1714L13.9518 17.6138L22.7298 11.3522L20.9876 8.90993Z" fill="#130160" mask="url(#path-1-inside-1_301_46)"/>
</svg>

